<svg width="76" height="76" viewBox="0 0 76 76">
  <g fill="#FFF" stroke="#FFF" transform="translate(1 1)">
    <path stroke-width=".93" d="M36.9344304,0 C16.5361077,-4.99178757e-15 1.67067485e-14,16.5361077 1.42108547e-14,36.9344304 C1.17149609e-14,57.332753 16.5361077,73.8688608 36.9344304,73.8688608 C57.332753,73.8688608 73.8688608,57.332753 73.8688608,36.9344304 C73.8327703,16.5510756 57.3177851,0.0360905068 36.9344304,0 Z M36.9344304,72.2577215 C17.4259154,72.2577215 1.61113924,56.4429454 1.61113924,36.9344304 C1.61113924,17.4259154 17.4259154,1.61113924 36.9344304,1.61113924 C56.4429454,1.61113924 72.2577215,17.4259154 72.2577215,36.9344304 C72.2370702,56.4343849 56.4343849,72.2370702 36.9344304,72.2577215 Z"/>
    <path stroke-width=".5" d="M35.5621519,51.0037975 L32.1431646,51.0037975 C31.6982607,51.0037975 31.3375949,50.6431317 31.3375949,50.1982278 C31.3375949,49.753324 31.6982607,49.3926582 32.1431646,49.3926582 L35.5574684,49.3926582 C36.0023722,49.3913649 36.3640864,49.7509823 36.3653797,50.1958861 C36.366673,50.6407899 36.0070557,51.0025041 35.5621519,51.0037975 Z"/>
    <path stroke-width=".5" d="M35.5621519,51.2379747 L32.1431646,51.2379747 C31.5689282,51.2379747 31.1034177,50.7724642 31.1034177,50.1982278 C31.1034177,49.6239915 31.5689282,49.158481 32.1431646,49.158481 L35.5574684,49.158481 C36.1317047,49.1571877 36.5982636,49.6216498 36.599557,50.1958861 C36.6008503,50.7701224 36.1363882,51.2366814 35.5621519,51.2379747 Z M32.1431646,49.6455696 C31.8275932,49.6455696 31.5717722,49.9013907 31.5717722,50.216962 C31.5717722,50.5325333 31.8275932,50.7883544 32.1431646,50.7883544 L35.5574684,50.7883544 C35.8730397,50.7883544 36.1288608,50.5325333 36.1288608,50.216962 C36.1288608,49.9013907 35.8730397,49.6455696 35.5574684,49.6455696 L32.1431646,49.6455696 Z"/>
    <path stroke-width=".5" d="M35.5621519,51.0037975 L11.84,51.0037975 C11.5521612,51.0038705 11.286154,50.8503586 11.142203,50.6011012 C10.998252,50.3518437 10.9982325,50.0447188 11.1421519,49.795443 L30.6865823,15.9240506 C30.8341588,15.6727393 31.1059649,15.5207334 31.3973447,15.526561 C31.6887246,15.5323886 31.9542355,15.6951409 32.0916456,15.9521519 L39.6883544,30.3681013 C39.8785053,30.6221102 39.9018375,30.9640801 39.7479495,31.2415623 C39.5940615,31.5190446 39.2916218,31.6803457 38.9754567,31.6535585 C38.6592917,31.6267712 38.388301,31.4168858 38.2832911,31.1174684 L31.3703797,18.0035443 L13.2544304,49.3832911 L35.5621519,49.3832911 C36.0096424,49.3832911 36.3724051,49.7460538 36.3724051,50.1935443 C36.3724051,50.6410348 36.0096424,51.0037975 35.5621519,51.0037975 Z"/>
    <path stroke-width=".5" d="M35.5621519,51.2379747 L11.84,51.2379747 C11.4687498,51.237544 11.125896,51.0391992 10.9404575,50.7175792 C10.7550189,50.3959592 10.755134,49.9998666 10.9407595,49.6783544 L30.4851899,15.8256962 C30.6745345,15.499123 31.0260074,15.3008293 31.4034396,15.3076386 C31.7808718,15.314448 32.1249633,15.5252905 32.3024051,15.858481 L39.8944304,30.2603797 C40.0231097,30.5044408 40.0495083,30.7896396 39.9678128,31.0531732 C39.8861174,31.3167069 39.7030274,31.5369643 39.4588608,31.665443 C38.9494387,31.9199933 38.3299086,31.7279389 38.0537975,31.2298734 L31.3422785,18.4953165 L13.638481,49.1772152 L35.5574684,49.1772152 C36.0733654,49.2457331 36.4591398,49.6851225 36.4603225,50.2055483 C36.4615053,50.7259741 36.0777321,51.1671125 35.5621519,51.2379747 L35.5621519,51.2379747 Z M31.3797468,15.7788608 C31.1848648,15.7871441 31.0079394,15.8950686 30.9113924,16.064557 L11.3482278,49.9125316 C11.246013,50.0895711 11.2461665,50.3077295 11.3486305,50.484625 C11.4510945,50.6615204 11.6402562,50.7701987 11.8446835,50.7696203 L35.5621519,50.7696203 C35.8777232,50.7696203 36.1335443,50.5137992 36.1335443,50.1982278 C36.1335443,49.8826565 35.8777232,49.6268354 35.5621519,49.6268354 L12.8282278,49.6268354 L31.3797468,17.5258228 L38.4706329,31.0097468 C38.6213289,31.2851485 38.9636032,31.3909424 39.2434177,31.2486076 C39.3776793,31.1779145 39.4783092,31.0567216 39.5231176,30.911753 C39.5679261,30.7667845 39.5532331,30.6099464 39.4822785,30.4758228 L31.8902532,16.0832911 C31.7904094,15.8943266 31.5934579,15.7768785 31.3797468,15.7788608 L31.3797468,15.7788608 Z"/>
    <path stroke-width=".5" d="M35.5574684,51.0037975 C35.4159924,51.0045329 35.2769051,50.9673352 35.1546835,50.8960759 C34.9695668,50.7892842 34.8344714,50.6133107 34.7791325,50.4068881 C34.7237937,50.2004655 34.7527472,49.9805129 34.8596203,49.795443 L48.0906329,26.8741772 C48.233195,26.6201057 48.5018292,26.4628051 48.7931646,26.4628051 C49.0844999,26.4628051 49.3531341,26.6201057 49.4956962,26.8741772 L62.7267089,49.795443 C62.8706283,50.0447188 62.8706088,50.3518437 62.7266578,50.6011012 C62.5827068,50.8503586 62.3166996,51.0038705 62.0288608,51.0037975 L44.1517722,51.0037975 C43.7068683,51.0037975 43.3462025,50.6431317 43.3462025,50.1982278 C43.3462025,49.753324 43.7068683,49.3926582 44.1517722,49.3926582 L60.6331646,49.3926582 L48.7931646,28.8881013 L36.2553165,50.5822785 C36.1162182,50.8388111 35.8492616,51.00006 35.5574684,51.0037975 L35.5574684,51.0037975 Z"/>
    <path stroke-width=".5" d="M62.0288608,51.2379747 L44.1517722,51.2379747 C43.5775358,51.2379747 43.1120253,50.7724642 43.1120253,50.1982278 C43.1120253,49.6239915 43.5775358,49.158481 44.1517722,49.158481 L60.2303797,49.158481 L48.7931646,29.3564557 L36.4613924,50.7181013 C36.1650673,51.1935546 35.5516854,51.3591677 35.0563291,51.0974684 C34.5685282,50.8104323 34.3999178,50.1859493 34.676962,49.6924051 L47.9079747,26.7711392 C48.0940204,26.4506156 48.4366098,26.2533503 48.8072152,26.2533503 C49.1778206,26.2533503 49.52041,26.4506156 49.7064557,26.7711392 L62.9374684,49.6924051 C63.1167952,50.0144608 63.1121987,50.4073905 62.9253869,50.725163 C62.7385752,51.0429356 62.3974771,51.2380432 62.0288608,51.2379747 Z M44.1517722,49.6455696 C43.8362008,49.6455696 43.5803797,49.9013907 43.5803797,50.216962 C43.5803797,50.5325333 43.8362008,50.7883544 44.1517722,50.7883544 L62.0288608,50.7883544 C62.2324512,50.7872629 62.4200819,50.6779249 62.5214041,50.5013348 C62.6227263,50.3247446 62.6224325,50.1075812 62.5206329,49.9312658 L49.2849367,26.9912658 C49.1745038,26.8264798 48.9891907,26.7275909 48.7908228,26.7275909 C48.5924548,26.7275909 48.4071418,26.8264798 48.2967089,26.9912658 L35.0656962,49.9125316 C34.9102637,50.1855588 35.0044104,50.5328554 35.2764557,50.69 C35.548941,50.8409195 35.8919668,50.749997 36.0539241,50.4839241 L48.7931646,28.4150633 L61.0406329,49.6455696 L44.1517722,49.6455696 Z"/>
  </g>
</svg>
